# xmcd CD database file
#
# Track frame offsets:
#	150
#	98927
#	120405
#	132135
#	142155
#	161095
#	218795
#	241432
#	256617
#	277042
#
# Disc length: 3863 seconds
#
# Revision: 0
# Processed by: cddbd v1.4PL0 Copyright (c) Steve Scherf et al.
# Submitted via: CDex 1.50
#
DISCID=910f150a
DTITLE=Various Artist - SKYSCRAPERS SYMPHONIC JAZZ
DYEAR=1900
DGENRE=Jazz
TTITLE0=CARPENTER - SKYSCRAPERS
TTITLE1=ALTER - MANHATTAN SERENADE
TTITLE2=GRISELLE - TWO AMERICAN SKETCHES - I NOCTURNE
TTITLE3=GRISELLE - TWO AMERICAN SKETCHES - II MARCH
TTITLE4=BLOOM - SONG OF THE BAYOU
TTITLE5=WERNER, JANSSEN - NEW YEAR'S EVE IN NEW YORK
TTITLE6=SHILKRET - SKYWARD
TTITLE7=SUESSE - JAZZ NOCTURNE
TTITLE8=ALTER - MANHATTAN MOONLIGHT
TTITLE9=CONFREY - BUFFOON
EXTD=
EXTT0=
EXTT1=
EXTT2=
EXTT3=
EXTT4=
EXTT5=
EXTT6=
EXTT7=
EXTT8=
EXTT9=
PLAYORDER=
